<mxfile host="app.diagrams.net" modified="2024-02-23T13:55:48.615Z" agent="Mozilla/5.0 (Macintosh; Intel Mac OS X 10.15; rv:123.0) Gecko/20100101 Firefox/123.0" etag="2F8r_U_vgMkBt3bQV4r0" version="23.1.5" type="github">
  <diagram name="Side-1" id="9mnE9WG8_OJLfj2RVfxw">
    <mxGraphModel dx="2072" dy="1112" grid="1" gridSize="10" guides="1" tooltips="1" connect="1" arrows="1" fold="1" page="0" pageScale="1" pageWidth="827" pageHeight="1169" math="0" shadow="0">
      <root>
        <mxCell id="0" />
        <mxCell id="1" parent="0" />
        <mxCell id="_1zo_0X2JNKBCcqEEN4J-133" value="" style="rounded=0;whiteSpace=wrap;html=1;strokeColor=none;align=center;verticalAlign=middle;fontFamily=Helvetica;fontSize=11;fontColor=default;labelBackgroundColor=default;fillColor=default;" parent="1" vertex="1">
          <mxGeometry x="-440" y="-220" width="990" height="770" as="geometry" />
        </mxCell>
        <mxCell id="_1zo_0X2JNKBCcqEEN4J-15" style="edgeStyle=orthogonalEdgeStyle;rounded=0;orthogonalLoop=1;jettySize=auto;html=1;exitX=1;exitY=0.25;exitDx=0;exitDy=0;entryX=0;entryY=0.5;entryDx=0;entryDy=0;strokeColor=default;align=center;verticalAlign=middle;fontFamily=Helvetica;fontSize=11;fontColor=default;labelBackgroundColor=default;endArrow=none;endFill=0;" parent="1" source="8iEQ6CnjQbjdu1nKR5JB-6" target="_1zo_0X2JNKBCcqEEN4J-14" edge="1">
          <mxGeometry relative="1" as="geometry">
            <mxPoint x="320" y="130" as="sourcePoint" />
          </mxGeometry>
        </mxCell>
        <mxCell id="_1zo_0X2JNKBCcqEEN4J-121" value="&lt;div&gt;REST &lt;br&gt;&lt;/div&gt;&lt;div&gt;API Key&lt;br&gt;&lt;/div&gt;" style="edgeLabel;html=1;align=center;verticalAlign=middle;resizable=0;points=[];rounded=0;strokeColor=default;fontFamily=Helvetica;fontSize=11;fontColor=default;labelBackgroundColor=default;fillColor=default;" parent="_1zo_0X2JNKBCcqEEN4J-15" vertex="1" connectable="0">
          <mxGeometry x="0.3639" y="-1" relative="1" as="geometry">
            <mxPoint x="-3" y="23" as="offset" />
          </mxGeometry>
        </mxCell>
        <mxCell id="_1zo_0X2JNKBCcqEEN4J-17" style="edgeStyle=orthogonalEdgeStyle;rounded=0;orthogonalLoop=1;jettySize=auto;html=1;exitX=0.75;exitY=1;exitDx=0;exitDy=0;entryX=0;entryY=0.5;entryDx=0;entryDy=0;strokeColor=default;align=center;verticalAlign=middle;fontFamily=Helvetica;fontSize=11;fontColor=default;labelBackgroundColor=default;endArrow=none;endFill=0;" parent="1" source="8iEQ6CnjQbjdu1nKR5JB-6" target="_1zo_0X2JNKBCcqEEN4J-16" edge="1">
          <mxGeometry relative="1" as="geometry">
            <mxPoint x="320" y="190" as="sourcePoint" />
          </mxGeometry>
        </mxCell>
        <mxCell id="_1zo_0X2JNKBCcqEEN4J-122" value="&lt;div&gt;REST&lt;/div&gt;&lt;div&gt;API Key&lt;br&gt;&lt;/div&gt;" style="edgeLabel;html=1;align=center;verticalAlign=middle;resizable=0;points=[];rounded=0;strokeColor=default;fontFamily=Helvetica;fontSize=11;fontColor=default;labelBackgroundColor=default;fillColor=default;" parent="_1zo_0X2JNKBCcqEEN4J-17" vertex="1" connectable="0">
          <mxGeometry x="0.3374" y="1" relative="1" as="geometry">
            <mxPoint as="offset" />
          </mxGeometry>
        </mxCell>
        <mxCell id="_1zo_0X2JNKBCcqEEN4J-88" style="edgeStyle=orthogonalEdgeStyle;rounded=0;orthogonalLoop=1;jettySize=auto;html=1;exitX=0;exitY=0.75;exitDx=0;exitDy=0;entryX=1;entryY=0.5;entryDx=0;entryDy=0;strokeColor=default;align=center;verticalAlign=middle;fontFamily=Helvetica;fontSize=11;fontColor=default;labelBackgroundColor=default;endArrow=none;endFill=0;" parent="1" source="8iEQ6CnjQbjdu1nKR5JB-6" target="_1zo_0X2JNKBCcqEEN4J-24" edge="1">
          <mxGeometry relative="1" as="geometry">
            <mxPoint x="100" y="160" as="sourcePoint" />
          </mxGeometry>
        </mxCell>
        <mxCell id="_1zo_0X2JNKBCcqEEN4J-118" value="SSL" style="edgeLabel;html=1;align=center;verticalAlign=middle;resizable=0;points=[];rounded=0;strokeColor=default;fontFamily=Helvetica;fontSize=11;fontColor=default;labelBackgroundColor=default;fillColor=default;" parent="_1zo_0X2JNKBCcqEEN4J-88" vertex="1" connectable="0">
          <mxGeometry x="0.0333" y="1" relative="1" as="geometry">
            <mxPoint x="-9" y="-1" as="offset" />
          </mxGeometry>
        </mxCell>
        <mxCell id="_1zo_0X2JNKBCcqEEN4J-90" style="edgeStyle=orthogonalEdgeStyle;rounded=0;orthogonalLoop=1;jettySize=auto;html=1;exitX=0;exitY=0.25;exitDx=0;exitDy=0;entryX=1;entryY=0.5;entryDx=0;entryDy=0;strokeColor=default;align=center;verticalAlign=middle;fontFamily=Helvetica;fontSize=11;fontColor=default;labelBackgroundColor=default;endArrow=none;endFill=0;" parent="1" source="8iEQ6CnjQbjdu1nKR5JB-6" target="_1zo_0X2JNKBCcqEEN4J-31" edge="1">
          <mxGeometry relative="1" as="geometry">
            <mxPoint x="130" y="130" as="sourcePoint" />
          </mxGeometry>
        </mxCell>
        <mxCell id="_1zo_0X2JNKBCcqEEN4J-119" value="SSL" style="edgeLabel;html=1;align=center;verticalAlign=middle;resizable=0;points=[];rounded=0;strokeColor=default;fontFamily=Helvetica;fontSize=11;fontColor=default;labelBackgroundColor=default;fillColor=default;" parent="_1zo_0X2JNKBCcqEEN4J-90" vertex="1" connectable="0">
          <mxGeometry x="0.7533" y="1" relative="1" as="geometry">
            <mxPoint x="2" y="-1" as="offset" />
          </mxGeometry>
        </mxCell>
        <mxCell id="_1zo_0X2JNKBCcqEEN4J-7" value="&lt;div&gt;Flight&amp;nbsp;&lt;/div&gt;&lt;div&gt;Planner&lt;/div&gt;" style="shape=umlActor;verticalLabelPosition=bottom;verticalAlign=top;html=1;outlineConnect=0;" parent="1" vertex="1">
          <mxGeometry x="420" y="110" width="30" height="60" as="geometry" />
        </mxCell>
        <mxCell id="_1zo_0X2JNKBCcqEEN4J-14" value="&lt;div&gt;&lt;font style=&quot;font-size: 12px;&quot;&gt;«external»&lt;/font&gt;&lt;/div&gt;&lt;div&gt;&lt;font style=&quot;font-size: 12px;&quot;&gt;Central Flight Registry&lt;br&gt;&lt;/font&gt;&lt;/div&gt;" style="html=1;whiteSpace=wrap;rounded=0;strokeColor=default;align=center;verticalAlign=middle;fontFamily=Helvetica;fontSize=11;fontColor=default;labelBackgroundColor=default;fillColor=default;" parent="1" vertex="1">
          <mxGeometry x="365" y="10" width="120" height="60" as="geometry" />
        </mxCell>
        <mxCell id="_1zo_0X2JNKBCcqEEN4J-19" style="edgeStyle=orthogonalEdgeStyle;rounded=0;orthogonalLoop=1;jettySize=auto;html=1;exitX=1;exitY=0.5;exitDx=0;exitDy=0;strokeColor=default;align=center;verticalAlign=middle;fontFamily=Helvetica;fontSize=11;fontColor=default;labelBackgroundColor=default;endArrow=none;endFill=0;" parent="1" source="_1zo_0X2JNKBCcqEEN4J-16" target="_1zo_0X2JNKBCcqEEN4J-18" edge="1">
          <mxGeometry relative="1" as="geometry" />
        </mxCell>
        <mxCell id="_1zo_0X2JNKBCcqEEN4J-16" value="&lt;div&gt;&lt;font style=&quot;font-size: 12px;&quot;&gt;«external»&lt;/font&gt;&lt;/div&gt;&lt;div&gt;&lt;font style=&quot;font-size: 12px;&quot;&gt;Airline Systems&lt;br&gt;&lt;/font&gt;&lt;/div&gt;" style="html=1;whiteSpace=wrap;rounded=0;strokeColor=default;align=center;verticalAlign=middle;fontFamily=Helvetica;fontSize=11;fontColor=default;labelBackgroundColor=default;fillColor=default;" parent="1" vertex="1">
          <mxGeometry x="330" y="240" width="120" height="60" as="geometry" />
        </mxCell>
        <mxCell id="_1zo_0X2JNKBCcqEEN4J-18" value="&lt;div&gt;Airline&amp;nbsp;&lt;/div&gt;&lt;div&gt;Systems Dev&lt;/div&gt;" style="shape=umlActor;verticalLabelPosition=bottom;verticalAlign=top;html=1;outlineConnect=0;" parent="1" vertex="1">
          <mxGeometry x="480" y="240" width="30" height="60" as="geometry" />
        </mxCell>
        <mxCell id="_1zo_0X2JNKBCcqEEN4J-29" style="edgeStyle=orthogonalEdgeStyle;rounded=0;orthogonalLoop=1;jettySize=auto;html=1;exitX=1;exitY=0.5;exitDx=0;exitDy=0;entryX=0.5;entryY=0;entryDx=0;entryDy=0;strokeColor=default;align=center;verticalAlign=middle;fontFamily=Helvetica;fontSize=11;fontColor=default;labelBackgroundColor=default;endArrow=none;endFill=0;" parent="1" source="_1zo_0X2JNKBCcqEEN4J-20" target="_1zo_0X2JNKBCcqEEN4J-27" edge="1">
          <mxGeometry relative="1" as="geometry" />
        </mxCell>
        <mxCell id="_1zo_0X2JNKBCcqEEN4J-124" value="&lt;div&gt;REST&lt;/div&gt;&lt;div&gt;API Key&lt;br&gt;&lt;/div&gt;" style="edgeLabel;html=1;align=center;verticalAlign=middle;resizable=0;points=[];rounded=0;strokeColor=default;fontFamily=Helvetica;fontSize=11;fontColor=default;labelBackgroundColor=default;fillColor=default;" parent="_1zo_0X2JNKBCcqEEN4J-29" vertex="1" connectable="0">
          <mxGeometry x="-0.4249" relative="1" as="geometry">
            <mxPoint as="offset" />
          </mxGeometry>
        </mxCell>
        <mxCell id="_1zo_0X2JNKBCcqEEN4J-30" style="edgeStyle=orthogonalEdgeStyle;rounded=0;orthogonalLoop=1;jettySize=auto;html=1;exitX=0;exitY=0.5;exitDx=0;exitDy=0;entryX=0.5;entryY=0;entryDx=0;entryDy=0;strokeColor=default;align=center;verticalAlign=middle;fontFamily=Helvetica;fontSize=11;fontColor=default;labelBackgroundColor=default;endArrow=none;endFill=0;" parent="1" source="_1zo_0X2JNKBCcqEEN4J-20" target="_1zo_0X2JNKBCcqEEN4J-25" edge="1">
          <mxGeometry relative="1" as="geometry" />
        </mxCell>
        <mxCell id="_1zo_0X2JNKBCcqEEN4J-128" value="&lt;div&gt;REST&lt;/div&gt;&lt;div&gt;API Key&lt;br&gt;&lt;/div&gt;" style="edgeLabel;html=1;align=center;verticalAlign=middle;resizable=0;points=[];rounded=0;strokeColor=default;fontFamily=Helvetica;fontSize=11;fontColor=default;labelBackgroundColor=default;fillColor=default;" parent="_1zo_0X2JNKBCcqEEN4J-30" vertex="1" connectable="0">
          <mxGeometry x="-0.3888" y="-1" relative="1" as="geometry">
            <mxPoint as="offset" />
          </mxGeometry>
        </mxCell>
        <mxCell id="8iEQ6CnjQbjdu1nKR5JB-10" style="edgeStyle=orthogonalEdgeStyle;rounded=0;orthogonalLoop=1;jettySize=auto;html=1;exitX=0.5;exitY=0;exitDx=0;exitDy=0;entryX=0.5;entryY=1;entryDx=0;entryDy=0;strokeColor=default;align=center;verticalAlign=middle;fontFamily=Helvetica;fontSize=11;fontColor=default;labelBackgroundColor=default;endArrow=none;endFill=0;" edge="1" parent="1" source="_1zo_0X2JNKBCcqEEN4J-20" target="8iEQ6CnjQbjdu1nKR5JB-6">
          <mxGeometry relative="1" as="geometry" />
        </mxCell>
        <mxCell id="_1zo_0X2JNKBCcqEEN4J-20" value="&lt;div&gt;&lt;font style=&quot;font-size: 12px;&quot;&gt;«internal»&lt;/font&gt;&lt;/div&gt;&lt;div&gt;&lt;font style=&quot;font-size: 12px;&quot;&gt;Flight Info API&lt;br&gt;&lt;/font&gt;&lt;/div&gt;" style="html=1;whiteSpace=wrap;rounded=0;strokeColor=default;align=center;verticalAlign=middle;fontFamily=Helvetica;fontSize=11;fontColor=default;labelBackgroundColor=default;fillColor=default;" parent="1" vertex="1">
          <mxGeometry x="180" y="340" width="120" height="60" as="geometry" />
        </mxCell>
        <mxCell id="_1zo_0X2JNKBCcqEEN4J-23" value="&lt;div&gt;Airline Cargo&lt;/div&gt;&lt;div&gt;Operator&lt;br&gt;&lt;/div&gt;" style="shape=umlActor;verticalLabelPosition=bottom;verticalAlign=top;html=1;outlineConnect=0;" parent="1" vertex="1">
          <mxGeometry x="265" y="-20" width="30" height="60" as="geometry" />
        </mxCell>
        <mxCell id="_1zo_0X2JNKBCcqEEN4J-47" style="edgeStyle=orthogonalEdgeStyle;rounded=0;orthogonalLoop=1;jettySize=auto;html=1;exitX=0.5;exitY=0;exitDx=0;exitDy=0;entryX=0.5;entryY=1;entryDx=0;entryDy=0;strokeColor=default;align=center;verticalAlign=middle;fontFamily=Helvetica;fontSize=11;fontColor=default;labelBackgroundColor=default;endArrow=none;endFill=0;" parent="1" source="_1zo_0X2JNKBCcqEEN4J-24" target="_1zo_0X2JNKBCcqEEN4J-31" edge="1">
          <mxGeometry relative="1" as="geometry" />
        </mxCell>
        <mxCell id="_1zo_0X2JNKBCcqEEN4J-130" value="&lt;div&gt;REST&lt;/div&gt;&lt;div&gt;API Key, Whitelist&lt;br&gt;&lt;/div&gt;" style="edgeLabel;html=1;align=center;verticalAlign=middle;resizable=0;points=[];rounded=0;strokeColor=default;fontFamily=Helvetica;fontSize=11;fontColor=default;labelBackgroundColor=default;fillColor=default;" parent="_1zo_0X2JNKBCcqEEN4J-47" vertex="1" connectable="0">
          <mxGeometry x="-0.0194" relative="1" as="geometry">
            <mxPoint as="offset" />
          </mxGeometry>
        </mxCell>
        <mxCell id="_1zo_0X2JNKBCcqEEN4J-48" style="edgeStyle=orthogonalEdgeStyle;rounded=0;orthogonalLoop=1;jettySize=auto;html=1;exitX=0.5;exitY=1;exitDx=0;exitDy=0;entryX=0.5;entryY=0;entryDx=0;entryDy=0;strokeColor=default;align=center;verticalAlign=middle;fontFamily=Helvetica;fontSize=11;fontColor=default;labelBackgroundColor=default;endArrow=none;endFill=0;" parent="1" source="_1zo_0X2JNKBCcqEEN4J-24" target="_1zo_0X2JNKBCcqEEN4J-34" edge="1">
          <mxGeometry relative="1" as="geometry" />
        </mxCell>
        <mxCell id="_1zo_0X2JNKBCcqEEN4J-49" style="edgeStyle=orthogonalEdgeStyle;rounded=0;orthogonalLoop=1;jettySize=auto;html=1;exitX=0;exitY=0.5;exitDx=0;exitDy=0;entryX=1;entryY=0.5;entryDx=0;entryDy=0;strokeColor=default;align=center;verticalAlign=middle;fontFamily=Helvetica;fontSize=11;fontColor=default;labelBackgroundColor=default;endArrow=none;endFill=0;" parent="1" source="_1zo_0X2JNKBCcqEEN4J-24" target="_1zo_0X2JNKBCcqEEN4J-46" edge="1">
          <mxGeometry relative="1" as="geometry" />
        </mxCell>
        <mxCell id="_1zo_0X2JNKBCcqEEN4J-131" value="&lt;div&gt;REST&lt;/div&gt;&lt;div&gt;API Key, Whitelist&lt;br&gt;&lt;/div&gt;" style="edgeLabel;html=1;align=center;verticalAlign=middle;resizable=0;points=[];rounded=0;strokeColor=default;fontFamily=Helvetica;fontSize=11;fontColor=default;labelBackgroundColor=default;fillColor=default;" parent="_1zo_0X2JNKBCcqEEN4J-49" vertex="1" connectable="0">
          <mxGeometry x="0.0771" relative="1" as="geometry">
            <mxPoint as="offset" />
          </mxGeometry>
        </mxCell>
        <mxCell id="_1zo_0X2JNKBCcqEEN4J-24" value="&lt;div&gt;&lt;font style=&quot;font-size: 12px;&quot;&gt;«internal»&lt;/font&gt;&lt;/div&gt;&lt;div&gt;&lt;font style=&quot;font-size: 12px;&quot;&gt;Boarding Pass API&lt;br&gt;&lt;/font&gt;&lt;/div&gt;" style="html=1;whiteSpace=wrap;rounded=0;strokeColor=default;align=center;verticalAlign=middle;fontFamily=Helvetica;fontSize=11;fontColor=default;labelBackgroundColor=default;fillColor=default;" parent="1" vertex="1">
          <mxGeometry x="-80" y="160" width="120" height="60" as="geometry" />
        </mxCell>
        <mxCell id="_1zo_0X2JNKBCcqEEN4J-123" style="edgeStyle=orthogonalEdgeStyle;rounded=0;orthogonalLoop=1;jettySize=auto;html=1;exitX=0.5;exitY=1;exitDx=0;exitDy=0;strokeColor=default;align=center;verticalAlign=middle;fontFamily=Helvetica;fontSize=11;fontColor=default;labelBackgroundColor=default;endArrow=none;endFill=0;" parent="1" source="_1zo_0X2JNKBCcqEEN4J-25" edge="1">
          <mxGeometry relative="1" as="geometry">
            <mxPoint x="100" y="520" as="targetPoint" />
          </mxGeometry>
        </mxCell>
        <mxCell id="_1zo_0X2JNKBCcqEEN4J-25" value="&lt;div&gt;&lt;font style=&quot;font-size: 12px;&quot;&gt;«internal»&lt;/font&gt;&lt;/div&gt;&lt;div&gt;&lt;font style=&quot;font-size: 12px;&quot;&gt;Flight Info Web Display&lt;br&gt;&lt;/font&gt;&lt;/div&gt;" style="html=1;whiteSpace=wrap;rounded=0;strokeColor=default;align=center;verticalAlign=middle;fontFamily=Helvetica;fontSize=11;fontColor=default;labelBackgroundColor=default;fillColor=default;" parent="1" vertex="1">
          <mxGeometry x="40" y="420" width="120" height="60" as="geometry" />
        </mxCell>
        <mxCell id="_1zo_0X2JNKBCcqEEN4J-28" style="edgeStyle=orthogonalEdgeStyle;rounded=0;orthogonalLoop=1;jettySize=auto;html=1;exitX=0.5;exitY=0;exitDx=0;exitDy=0;strokeColor=default;align=center;verticalAlign=middle;fontFamily=Helvetica;fontSize=11;fontColor=default;labelBackgroundColor=default;endArrow=none;endFill=0;" parent="1" source="_1zo_0X2JNKBCcqEEN4J-26" target="_1zo_0X2JNKBCcqEEN4J-20" edge="1">
          <mxGeometry relative="1" as="geometry" />
        </mxCell>
        <mxCell id="_1zo_0X2JNKBCcqEEN4J-127" value="&lt;div&gt;REST&lt;/div&gt;&lt;div&gt;API Key&lt;br&gt;&lt;/div&gt;" style="edgeLabel;html=1;align=center;verticalAlign=middle;resizable=0;points=[];rounded=0;strokeColor=default;fontFamily=Helvetica;fontSize=11;fontColor=default;labelBackgroundColor=default;fillColor=default;" parent="_1zo_0X2JNKBCcqEEN4J-28" vertex="1" connectable="0">
          <mxGeometry x="0.0181" y="-1" relative="1" as="geometry">
            <mxPoint as="offset" />
          </mxGeometry>
        </mxCell>
        <mxCell id="_1zo_0X2JNKBCcqEEN4J-83" style="edgeStyle=orthogonalEdgeStyle;rounded=0;orthogonalLoop=1;jettySize=auto;html=1;exitX=0.5;exitY=1;exitDx=0;exitDy=0;strokeColor=default;align=center;verticalAlign=middle;fontFamily=Helvetica;fontSize=11;fontColor=default;labelBackgroundColor=default;endArrow=none;endFill=0;" parent="1" source="_1zo_0X2JNKBCcqEEN4J-26" edge="1">
          <mxGeometry relative="1" as="geometry">
            <mxPoint x="-390" y="360" as="targetPoint" />
          </mxGeometry>
        </mxCell>
        <mxCell id="_1zo_0X2JNKBCcqEEN4J-26" value="&lt;div&gt;&lt;font style=&quot;font-size: 12px;&quot;&gt;«internal»&lt;/font&gt;&lt;/div&gt;&lt;div&gt;&lt;font style=&quot;font-size: 12px;&quot;&gt;Flight Info Physical Display&lt;br&gt;&lt;/font&gt;&lt;/div&gt;" style="html=1;whiteSpace=wrap;rounded=0;strokeColor=default;align=center;verticalAlign=middle;fontFamily=Helvetica;fontSize=11;fontColor=default;labelBackgroundColor=default;fillColor=default;" parent="1" vertex="1">
          <mxGeometry x="180" y="440" width="120" height="60" as="geometry" />
        </mxCell>
        <mxCell id="_1zo_0X2JNKBCcqEEN4J-115" style="edgeStyle=orthogonalEdgeStyle;rounded=0;orthogonalLoop=1;jettySize=auto;html=1;exitX=1;exitY=0.5;exitDx=0;exitDy=0;strokeColor=default;align=center;verticalAlign=middle;fontFamily=Helvetica;fontSize=11;fontColor=default;labelBackgroundColor=default;endArrow=none;endFill=0;" parent="1" source="_1zo_0X2JNKBCcqEEN4J-27" target="_1zo_0X2JNKBCcqEEN4J-114" edge="1">
          <mxGeometry relative="1" as="geometry" />
        </mxCell>
        <mxCell id="_1zo_0X2JNKBCcqEEN4J-27" value="&lt;div&gt;&lt;font style=&quot;font-size: 12px;&quot;&gt;«external»&lt;/font&gt;&lt;/div&gt;&lt;div&gt;&lt;font style=&quot;font-size: 12px;&quot;&gt;3rd Party Apps&lt;br&gt;&lt;/font&gt;&lt;/div&gt;" style="html=1;whiteSpace=wrap;rounded=0;strokeColor=default;align=center;verticalAlign=middle;fontFamily=Helvetica;fontSize=11;fontColor=default;labelBackgroundColor=default;fillColor=default;" parent="1" vertex="1">
          <mxGeometry x="320" y="420" width="120" height="60" as="geometry" />
        </mxCell>
        <mxCell id="_1zo_0X2JNKBCcqEEN4J-73" style="edgeStyle=orthogonalEdgeStyle;rounded=0;orthogonalLoop=1;jettySize=auto;html=1;exitX=0.5;exitY=0;exitDx=0;exitDy=0;strokeColor=default;align=center;verticalAlign=middle;fontFamily=Helvetica;fontSize=11;fontColor=default;labelBackgroundColor=default;endArrow=none;endFill=0;" parent="1" source="_1zo_0X2JNKBCcqEEN4J-31" edge="1">
          <mxGeometry relative="1" as="geometry">
            <mxPoint x="-390" y="260" as="targetPoint" />
          </mxGeometry>
        </mxCell>
        <mxCell id="_1zo_0X2JNKBCcqEEN4J-116" value="QR Scan" style="edgeLabel;html=1;align=center;verticalAlign=middle;resizable=0;points=[];rounded=0;strokeColor=default;fontFamily=Helvetica;fontSize=11;fontColor=default;labelBackgroundColor=default;fillColor=default;" parent="_1zo_0X2JNKBCcqEEN4J-73" vertex="1" connectable="0">
          <mxGeometry x="-0.9701" y="1" relative="1" as="geometry">
            <mxPoint as="offset" />
          </mxGeometry>
        </mxCell>
        <mxCell id="_1zo_0X2JNKBCcqEEN4J-86" style="edgeStyle=orthogonalEdgeStyle;rounded=0;orthogonalLoop=1;jettySize=auto;html=1;exitX=0.75;exitY=0;exitDx=0;exitDy=0;strokeColor=default;align=center;verticalAlign=middle;fontFamily=Helvetica;fontSize=11;fontColor=default;labelBackgroundColor=default;endArrow=none;endFill=0;" parent="1" source="_1zo_0X2JNKBCcqEEN4J-31" edge="1">
          <mxGeometry relative="1" as="geometry">
            <mxPoint x="-20" y="-30" as="targetPoint" />
          </mxGeometry>
        </mxCell>
        <mxCell id="_1zo_0X2JNKBCcqEEN4J-31" value="&lt;div&gt;&lt;font style=&quot;font-size: 12px;&quot;&gt;«internal device»&lt;/font&gt;&lt;/div&gt;&lt;div&gt;&lt;font style=&quot;font-size: 12px;&quot;&gt;Passenger Access Checkpoint&lt;br&gt;&lt;/font&gt;&lt;/div&gt;" style="html=1;whiteSpace=wrap;rounded=0;strokeColor=default;align=center;verticalAlign=middle;fontFamily=Helvetica;fontSize=11;fontColor=default;labelBackgroundColor=default;fillColor=default;" parent="1" vertex="1">
          <mxGeometry x="-80" y="40" width="120" height="60" as="geometry" />
        </mxCell>
        <mxCell id="8iEQ6CnjQbjdu1nKR5JB-8" style="edgeStyle=orthogonalEdgeStyle;rounded=0;orthogonalLoop=1;jettySize=auto;html=1;exitX=1;exitY=0.5;exitDx=0;exitDy=0;entryX=0.25;entryY=1;entryDx=0;entryDy=0;strokeColor=default;align=center;verticalAlign=middle;fontFamily=Helvetica;fontSize=11;fontColor=default;labelBackgroundColor=default;endArrow=none;endFill=0;" edge="1" parent="1" source="_1zo_0X2JNKBCcqEEN4J-34" target="8iEQ6CnjQbjdu1nKR5JB-6">
          <mxGeometry relative="1" as="geometry">
            <Array as="points">
              <mxPoint x="90" y="330" />
              <mxPoint x="90" y="250" />
              <mxPoint x="200" y="250" />
            </Array>
          </mxGeometry>
        </mxCell>
        <mxCell id="8iEQ6CnjQbjdu1nKR5JB-9" value="&lt;div&gt;SSL, &lt;br&gt;&lt;/div&gt;&lt;div&gt;Employee&lt;/div&gt;&lt;div&gt;2FA&lt;br&gt;&lt;/div&gt;" style="edgeLabel;html=1;align=center;verticalAlign=middle;resizable=0;points=[];fontFamily=Helvetica;fontSize=11;fontColor=default;labelBackgroundColor=default;" vertex="1" connectable="0" parent="8iEQ6CnjQbjdu1nKR5JB-8">
          <mxGeometry x="0.2009" relative="1" as="geometry">
            <mxPoint as="offset" />
          </mxGeometry>
        </mxCell>
        <mxCell id="_1zo_0X2JNKBCcqEEN4J-34" value="&lt;div&gt;&lt;font style=&quot;font-size: 12px;&quot;&gt;«internal»&lt;/font&gt;&lt;/div&gt;&lt;div&gt;&lt;font style=&quot;font-size: 12px;&quot;&gt;Cargo/Passenger&lt;/font&gt;&lt;/div&gt;&lt;div&gt;&lt;font style=&quot;font-size: 12px;&quot;&gt;Check-in Terminal&lt;br&gt;&lt;/font&gt;&lt;/div&gt;" style="html=1;whiteSpace=wrap;rounded=0;strokeColor=default;align=center;verticalAlign=middle;fontFamily=Helvetica;fontSize=11;fontColor=default;labelBackgroundColor=default;fillColor=default;" parent="1" vertex="1">
          <mxGeometry x="-80" y="300" width="120" height="60" as="geometry" />
        </mxCell>
        <mxCell id="_1zo_0X2JNKBCcqEEN4J-50" style="edgeStyle=orthogonalEdgeStyle;rounded=0;orthogonalLoop=1;jettySize=auto;html=1;exitX=1;exitY=0.5;exitDx=0;exitDy=0;entryX=0;entryY=0.5;entryDx=0;entryDy=0;strokeColor=default;align=center;verticalAlign=middle;fontFamily=Helvetica;fontSize=11;fontColor=default;labelBackgroundColor=default;endArrow=none;endFill=0;" parent="1" source="_1zo_0X2JNKBCcqEEN4J-45" target="_1zo_0X2JNKBCcqEEN4J-24" edge="1">
          <mxGeometry relative="1" as="geometry" />
        </mxCell>
        <mxCell id="_1zo_0X2JNKBCcqEEN4J-132" value="&lt;div&gt;REST&lt;/div&gt;API Key" style="edgeLabel;html=1;align=center;verticalAlign=middle;resizable=0;points=[];rounded=0;strokeColor=default;fontFamily=Helvetica;fontSize=11;fontColor=default;labelBackgroundColor=default;fillColor=default;" parent="_1zo_0X2JNKBCcqEEN4J-50" vertex="1" connectable="0">
          <mxGeometry x="-0.5718" relative="1" as="geometry">
            <mxPoint as="offset" />
          </mxGeometry>
        </mxCell>
        <mxCell id="_1zo_0X2JNKBCcqEEN4J-78" style="edgeStyle=orthogonalEdgeStyle;rounded=0;orthogonalLoop=1;jettySize=auto;html=1;exitX=0;exitY=0.5;exitDx=0;exitDy=0;strokeColor=default;align=center;verticalAlign=middle;fontFamily=Helvetica;fontSize=11;fontColor=default;labelBackgroundColor=default;endArrow=none;endFill=0;" parent="1" source="_1zo_0X2JNKBCcqEEN4J-45" edge="1">
          <mxGeometry relative="1" as="geometry">
            <mxPoint x="-320" y="210.20000000000005" as="targetPoint" />
          </mxGeometry>
        </mxCell>
        <mxCell id="_1zo_0X2JNKBCcqEEN4J-45" value="&lt;div&gt;&lt;font style=&quot;font-size: 12px;&quot;&gt;«external»&lt;/font&gt;&lt;/div&gt;&lt;div&gt;&lt;font style=&quot;font-size: 12px;&quot;&gt;Airline Check-in&lt;/font&gt;&lt;/div&gt;&lt;div&gt;&lt;font style=&quot;font-size: 12px;&quot;&gt;Systems&lt;br&gt;&lt;/font&gt;&lt;/div&gt;" style="html=1;whiteSpace=wrap;rounded=0;strokeColor=default;align=center;verticalAlign=middle;fontFamily=Helvetica;fontSize=11;fontColor=default;labelBackgroundColor=default;fillColor=default;" parent="1" vertex="1">
          <mxGeometry x="-290" y="180" width="120" height="60" as="geometry" />
        </mxCell>
        <mxCell id="_1zo_0X2JNKBCcqEEN4J-54" style="edgeStyle=orthogonalEdgeStyle;rounded=0;orthogonalLoop=1;jettySize=auto;html=1;exitX=0.5;exitY=0;exitDx=0;exitDy=0;strokeColor=default;align=center;verticalAlign=middle;fontFamily=Helvetica;fontSize=11;fontColor=default;labelBackgroundColor=default;endArrow=none;endFill=0;" parent="1" source="_1zo_0X2JNKBCcqEEN4J-46" edge="1">
          <mxGeometry relative="1" as="geometry">
            <mxPoint x="-230" y="20" as="targetPoint" />
          </mxGeometry>
        </mxCell>
        <mxCell id="_1zo_0X2JNKBCcqEEN4J-46" value="&lt;div&gt;&lt;font style=&quot;font-size: 12px;&quot;&gt;«internal»&lt;/font&gt;&lt;/div&gt;&lt;div&gt;&lt;font style=&quot;font-size: 12px;&quot;&gt;Passenger &lt;br&gt;&lt;/font&gt;&lt;/div&gt;&lt;div&gt;&lt;font style=&quot;font-size: 12px;&quot;&gt;Check-in Terminal&lt;br&gt;&lt;/font&gt;&lt;/div&gt;" style="html=1;whiteSpace=wrap;rounded=0;strokeColor=default;align=center;verticalAlign=middle;fontFamily=Helvetica;fontSize=11;fontColor=default;labelBackgroundColor=default;fillColor=default;" parent="1" vertex="1">
          <mxGeometry x="-290" y="80" width="120" height="60" as="geometry" />
        </mxCell>
        <mxCell id="_1zo_0X2JNKBCcqEEN4J-79" style="edgeStyle=orthogonalEdgeStyle;rounded=0;orthogonalLoop=1;jettySize=auto;html=1;strokeColor=default;align=center;verticalAlign=middle;fontFamily=Helvetica;fontSize=11;fontColor=default;labelBackgroundColor=default;endArrow=none;endFill=0;" parent="1" source="_1zo_0X2JNKBCcqEEN4J-56" target="_1zo_0X2JNKBCcqEEN4J-34" edge="1">
          <mxGeometry relative="1" as="geometry" />
        </mxCell>
        <mxCell id="_1zo_0X2JNKBCcqEEN4J-56" value="&lt;div&gt;Passenger&lt;br&gt;&lt;/div&gt;" style="shape=umlActor;verticalLabelPosition=bottom;verticalAlign=top;html=1;outlineConnect=0;" parent="1" vertex="1">
          <mxGeometry x="-405" y="270" width="30" height="60" as="geometry" />
        </mxCell>
        <mxCell id="_1zo_0X2JNKBCcqEEN4J-76" value="&lt;div&gt;Airline &lt;br&gt;&lt;/div&gt;&lt;div&gt;Systems Dev&lt;br&gt;&lt;/div&gt;" style="shape=umlActor;verticalLabelPosition=bottom;verticalAlign=top;html=1;outlineConnect=0;" parent="1" vertex="1">
          <mxGeometry x="-360" y="160" width="30" height="60" as="geometry" />
        </mxCell>
        <mxCell id="_1zo_0X2JNKBCcqEEN4J-81" style="edgeStyle=orthogonalEdgeStyle;rounded=0;orthogonalLoop=1;jettySize=auto;html=1;entryX=0.5;entryY=1;entryDx=0;entryDy=0;strokeColor=default;align=center;verticalAlign=middle;fontFamily=Helvetica;fontSize=11;fontColor=default;labelBackgroundColor=default;endArrow=none;endFill=0;" parent="1" source="_1zo_0X2JNKBCcqEEN4J-80" target="_1zo_0X2JNKBCcqEEN4J-34" edge="1">
          <mxGeometry relative="1" as="geometry" />
        </mxCell>
        <mxCell id="_1zo_0X2JNKBCcqEEN4J-80" value="Airline employee" style="shape=umlActor;verticalLabelPosition=bottom;verticalAlign=top;html=1;outlineConnect=0;" parent="1" vertex="1">
          <mxGeometry x="-140" y="370" width="30" height="60" as="geometry" />
        </mxCell>
        <mxCell id="_1zo_0X2JNKBCcqEEN4J-85" value="Police" style="shape=umlActor;verticalLabelPosition=bottom;verticalAlign=top;html=1;outlineConnect=0;" parent="1" vertex="1">
          <mxGeometry x="-35" y="-120" width="30" height="60" as="geometry" />
        </mxCell>
        <mxCell id="_1zo_0X2JNKBCcqEEN4J-105" style="edgeStyle=orthogonalEdgeStyle;rounded=0;orthogonalLoop=1;jettySize=auto;html=1;exitX=0.5;exitY=0;exitDx=0;exitDy=0;strokeColor=default;align=center;verticalAlign=middle;fontFamily=Helvetica;fontSize=11;fontColor=default;labelBackgroundColor=default;endArrow=none;endFill=0;" parent="1" source="_1zo_0X2JNKBCcqEEN4J-87" edge="1">
          <mxGeometry relative="1" as="geometry">
            <mxPoint x="230" y="-50" as="targetPoint" />
          </mxGeometry>
        </mxCell>
        <mxCell id="_1zo_0X2JNKBCcqEEN4J-106" style="edgeStyle=orthogonalEdgeStyle;rounded=0;orthogonalLoop=1;jettySize=auto;html=1;exitX=0.5;exitY=0;exitDx=0;exitDy=0;strokeColor=default;align=center;verticalAlign=middle;fontFamily=Helvetica;fontSize=11;fontColor=default;labelBackgroundColor=default;endArrow=none;endFill=0;" parent="1" source="_1zo_0X2JNKBCcqEEN4J-87" edge="1">
          <mxGeometry relative="1" as="geometry">
            <mxPoint x="90" y="-50" as="targetPoint" />
          </mxGeometry>
        </mxCell>
        <mxCell id="_1zo_0X2JNKBCcqEEN4J-107" style="edgeStyle=orthogonalEdgeStyle;rounded=0;orthogonalLoop=1;jettySize=auto;html=1;exitX=0.5;exitY=0;exitDx=0;exitDy=0;strokeColor=default;align=center;verticalAlign=middle;fontFamily=Helvetica;fontSize=11;fontColor=default;labelBackgroundColor=default;endArrow=none;endFill=0;" parent="1" source="_1zo_0X2JNKBCcqEEN4J-87" edge="1">
          <mxGeometry relative="1" as="geometry">
            <mxPoint x="160" y="-100" as="targetPoint" />
          </mxGeometry>
        </mxCell>
        <mxCell id="_1zo_0X2JNKBCcqEEN4J-108" value="RFID" style="edgeLabel;html=1;align=center;verticalAlign=middle;resizable=0;points=[];rounded=0;strokeColor=default;fontFamily=Helvetica;fontSize=11;fontColor=default;labelBackgroundColor=default;fillColor=default;" parent="_1zo_0X2JNKBCcqEEN4J-107" vertex="1" connectable="0">
          <mxGeometry x="-0.4369" relative="1" as="geometry">
            <mxPoint as="offset" />
          </mxGeometry>
        </mxCell>
        <mxCell id="_1zo_0X2JNKBCcqEEN4J-87" value="&lt;div&gt;&lt;font style=&quot;font-size: 12px;&quot;&gt;«internal device»&lt;/font&gt;&lt;/div&gt;&lt;div&gt;&lt;font style=&quot;font-size: 12px;&quot;&gt;Employee Access Checkpoint&lt;br&gt;&lt;/font&gt;&lt;/div&gt;" style="html=1;whiteSpace=wrap;rounded=0;strokeColor=default;align=center;verticalAlign=middle;fontFamily=Helvetica;fontSize=11;fontColor=default;labelBackgroundColor=default;fillColor=default;" parent="1" vertex="1">
          <mxGeometry x="100" y="-20" width="120" height="60" as="geometry" />
        </mxCell>
        <mxCell id="_1zo_0X2JNKBCcqEEN4J-93" value="&lt;div&gt;Airline&amp;nbsp;&lt;/div&gt;&lt;div&gt;Employee&lt;/div&gt;" style="shape=umlActor;verticalLabelPosition=bottom;verticalAlign=top;html=1;outlineConnect=0;" parent="1" vertex="1">
          <mxGeometry x="210" y="-150" width="30" height="60" as="geometry" />
        </mxCell>
        <mxCell id="_1zo_0X2JNKBCcqEEN4J-94" value="&lt;div&gt;Airport &lt;br&gt;&lt;/div&gt;&lt;div&gt;Employee&lt;br&gt;&lt;/div&gt;" style="shape=umlActor;verticalLabelPosition=bottom;verticalAlign=top;html=1;outlineConnect=0;" parent="1" vertex="1">
          <mxGeometry x="145" y="-200" width="30" height="60" as="geometry" />
        </mxCell>
        <mxCell id="_1zo_0X2JNKBCcqEEN4J-96" value="&lt;div&gt;Airport Facility&lt;/div&gt;&lt;div&gt;Operator&lt;br&gt;&lt;/div&gt;" style="shape=umlActor;verticalLabelPosition=bottom;verticalAlign=top;html=1;outlineConnect=0;" parent="1" vertex="1">
          <mxGeometry x="80" y="-150" width="30" height="60" as="geometry" />
        </mxCell>
        <mxCell id="_1zo_0X2JNKBCcqEEN4J-111" value="Dev" style="shape=umlActor;verticalLabelPosition=bottom;verticalAlign=top;html=1;outlineConnect=0;" parent="1" vertex="1">
          <mxGeometry x="365" y="150" width="30" height="60" as="geometry" />
        </mxCell>
        <mxCell id="_1zo_0X2JNKBCcqEEN4J-114" value="&lt;div&gt;3rd Party App&lt;/div&gt;&lt;div&gt;Dev&lt;br&gt;&lt;/div&gt;" style="shape=umlActor;verticalLabelPosition=bottom;verticalAlign=top;html=1;outlineConnect=0;" parent="1" vertex="1">
          <mxGeometry x="460" y="420" width="30" height="60" as="geometry" />
        </mxCell>
        <mxCell id="8iEQ6CnjQbjdu1nKR5JB-7" style="edgeStyle=orthogonalEdgeStyle;rounded=0;orthogonalLoop=1;jettySize=auto;html=1;exitX=1;exitY=0.5;exitDx=0;exitDy=0;endArrow=none;endFill=0;" edge="1" parent="1" source="8iEQ6CnjQbjdu1nKR5JB-6" target="_1zo_0X2JNKBCcqEEN4J-7">
          <mxGeometry relative="1" as="geometry" />
        </mxCell>
        <mxCell id="8iEQ6CnjQbjdu1nKR5JB-14" style="edgeStyle=orthogonalEdgeStyle;rounded=0;orthogonalLoop=1;jettySize=auto;html=1;exitX=1;exitY=0.75;exitDx=0;exitDy=0;strokeColor=default;align=center;verticalAlign=middle;fontFamily=Helvetica;fontSize=11;fontColor=default;labelBackgroundColor=default;endArrow=none;endFill=0;" edge="1" parent="1" source="8iEQ6CnjQbjdu1nKR5JB-6" target="_1zo_0X2JNKBCcqEEN4J-111">
          <mxGeometry relative="1" as="geometry" />
        </mxCell>
        <mxCell id="8iEQ6CnjQbjdu1nKR5JB-16" style="edgeStyle=orthogonalEdgeStyle;rounded=0;orthogonalLoop=1;jettySize=auto;html=1;exitX=0.75;exitY=0;exitDx=0;exitDy=0;strokeColor=default;align=center;verticalAlign=middle;fontFamily=Helvetica;fontSize=11;fontColor=default;labelBackgroundColor=default;endArrow=none;endFill=0;" edge="1" parent="1" source="8iEQ6CnjQbjdu1nKR5JB-6">
          <mxGeometry relative="1" as="geometry">
            <mxPoint x="279.8780487804879" y="80" as="targetPoint" />
          </mxGeometry>
        </mxCell>
        <mxCell id="8iEQ6CnjQbjdu1nKR5JB-17" style="edgeStyle=orthogonalEdgeStyle;rounded=0;orthogonalLoop=1;jettySize=auto;html=1;exitX=0.25;exitY=0;exitDx=0;exitDy=0;entryX=0.5;entryY=1;entryDx=0;entryDy=0;strokeColor=default;align=center;verticalAlign=middle;fontFamily=Helvetica;fontSize=11;fontColor=default;labelBackgroundColor=default;endArrow=none;endFill=0;" edge="1" parent="1" source="8iEQ6CnjQbjdu1nKR5JB-6" target="_1zo_0X2JNKBCcqEEN4J-87">
          <mxGeometry relative="1" as="geometry" />
        </mxCell>
        <mxCell id="8iEQ6CnjQbjdu1nKR5JB-18" value="SSL" style="edgeLabel;html=1;align=center;verticalAlign=middle;resizable=0;points=[];fontFamily=Helvetica;fontSize=11;fontColor=default;labelBackgroundColor=default;" vertex="1" connectable="0" parent="8iEQ6CnjQbjdu1nKR5JB-17">
          <mxGeometry x="-0.037" y="1" relative="1" as="geometry">
            <mxPoint as="offset" />
          </mxGeometry>
        </mxCell>
        <mxCell id="8iEQ6CnjQbjdu1nKR5JB-6" value="&lt;font style=&quot;font-size: 14px;&quot;&gt;«system»&lt;/font&gt;&lt;br&gt;&lt;font style=&quot;font-size: 14px;&quot;&gt;SkyGate&lt;/font&gt;" style="rounded=0;whiteSpace=wrap;html=1;" vertex="1" parent="1">
          <mxGeometry x="160" y="100" width="160" height="80" as="geometry" />
        </mxCell>
      </root>
    </mxGraphModel>
  </diagram>
</mxfile>
